<svg class="logoHolderInner ng-scope" xmlns="http://www.w3.org/2000/svg" viewBox="0 0 202.68 202.52">
    <defs></defs>
    <path fill="#3bb9fd" d="M.18.33l28.6 28.57L78.89.04z"></path><path fill="#0ca8fd" d="M.18.33l28.94 28.36L0 78.62z"></path><path fill="#0088d2" d="M28.4 28.85l-.26 50.72L0 78.62z"></path><path fill="#50c1fd" d="M28.4 28.85l79.57-.24L78.48 0z"></path><path fill="#0088d2" d="M79.48 28.32l-.1 50.6 28.59-50.31z"></path><path fill="#0ca8fd" d="M107.97 28.6l-28.9 49.6 28.76 29.08z"></path><path fill="#50c1fd" d="M0 78.62l78.97-.2-50.7 28.3z"></path><path fill="#3bb9fd" d="M28.27 106.72l79.56.56-28.77-29.09z"></path><path fill="#a3ddfd" d="M114.14 49.56l21.3-20.76-.14 58.13-20.72 20.58z"></path><path fill="#3bb9fd" d="M107.36 113.9l-18.9 18.51-28.73-18.9z"></path><path fill="#95d8fd" d="M114.16 113.7l.2 63.5 23.43-40.25z"></path><path fill="#6dcbfd" d="M59.8 113.37L39.1 132.35l49.37.06z"></path><path fill="#0088d2" d="M39.09 132.28l18.5-.07.02 32.77z"></path><path fill="#0ca8fd" d="M39.2 132.1l18.44 32.84-18.7 16.87z"></path><path fill="#3bb9fd" d="M39.13 181.55l48.38.19-29.94-17.32z"></path><path fill="#6dcbfd" d="M57.3 164.45l30.23 17.33 20.7-17.72z"></path><path fill="#0ca8fd" d="M107.36 113.9l.87 50.16-19.77-31.65z"></path><path fill="#0088d2" d="M88.46 132.41l.02 31.82 19.75-.17z"></path><path fill="#50c1fd" d="M135.43 28.8l35.69 20.42 20.86-20.72z"></path><path fill="#3bb9fd" d="M135.14 49.45l35.98-.23-35.69-20.42z"></path><path fill="#50c1fd" d="M114.58 107.51l56.8.02-36.08-20.6z"></path><path fill="#a3ddfd" d="M171.12 49.22l.26 58.31 20.6-20.6V28.5z"></path><path fill="#3bb9fd" d="M135.3 86.93l36.08 20.6-.06-20.62z"></path><path fill="#6dcbfd" d="M114.16 113.7l23.63 23.25 41.41-23.4z"></path><path fill="#a3ddfd" d="M179.2 113.55l-.03 65 22.61-38.98z"></path><path fill="#95d8fd" d="M202.68 202.52l-23.5-23.97 22.6-38.98z"></path><path fill="#0ca8fd" d="M138 136.69l41.26-.13-.06-23.01z"></path><path fill="#6dcbfd" d="M137.8 202.16l41.37-23.6 23.51 23.96z"></path><path fill="#a3ddfd" d="M137.79 136.95l-23.44 40.25 23.45 24.96z"></path><path fill="#0ca8fd" d="M137.75 178.18l.05 23.98 41.37-23.6z"></path>
</svg>