<svg xmlns="http://www.w3.org/2000/svg" viewBox="0 0 1957 982"><defs><clipPath id="a"><path fill="none" d="M0 0h227v122H0z"/></clipPath><clipPath id="b"><path fill="none" d="M0 0h135v165H0z"/></clipPath></defs><g clip-path="url(#a)" transform="translate(1730 860)"><circle cx="6" cy="6" r="6" fill="#e9e9e9"/><circle cx="6" cy="6" r="6" fill="#e9e9e9" transform="translate(29)"/><circle cx="6" cy="6" r="6" fill="#e9e9e9" transform="translate(58)"/><circle cx="6" cy="6" r="6" fill="#e9e9e9" transform="translate(87)"/><circle cx="6" cy="6" r="6" fill="#e9e9e9" transform="translate(116)"/><circle cx="6" cy="6" r="6" fill="#e9e9e9" transform="translate(145)"/><circle cx="6" cy="6" r="6" fill="#e9e9e9" transform="translate(174)"/><circle cx="6" cy="6" r="6" fill="#e9e9e9" transform="translate(203)"/><circle cx="6" cy="6" r="6" fill="#e9e9e9" transform="translate(0 25)"/><circle cx="6" cy="6" r="6" fill="#e9e9e9" transform="translate(29 25)"/><circle cx="6" cy="6" r="6" fill="#e9e9e9" transform="translate(58 25)"/><circle cx="6" cy="6" r="6" fill="#e9e9e9" transform="translate(87 25)"/><circle cx="6" cy="6" r="6" fill="#e9e9e9" transform="translate(116 25)"/><circle cx="6" cy="6" r="6" fill="#e9e9e9" transform="translate(145 25)"/><circle cx="6" cy="6" r="6" fill="#e9e9e9" transform="translate(174 25)"/><circle cx="6" cy="6" r="6" fill="#e9e9e9" transform="translate(203 25)"/><circle cx="6" cy="6" r="6" fill="#e9e9e9" transform="translate(0 50)"/><circle cx="6" cy="6" r="6" fill="#e9e9e9" transform="translate(29 50)"/><circle cx="6" cy="6" r="6" fill="#e9e9e9" transform="translate(58 50)"/><circle cx="6" cy="6" r="6" fill="#e9e9e9" transform="translate(87 50)"/><circle cx="6" cy="6" r="6" fill="#e9e9e9" transform="translate(116 50)"/><circle cx="6" cy="6" r="6" fill="#e9e9e9" transform="translate(145 50)"/><circle cx="6" cy="6" r="6" fill="#e9e9e9" transform="translate(174 50)"/><circle cx="6" cy="6" r="6" fill="#e9e9e9" transform="translate(203 50)"/><circle cx="6" cy="6" r="6" fill="#e9e9e9" transform="translate(0 75)"/><circle cx="6" cy="6" r="6" fill="#e9e9e9" transform="translate(29 75)"/><circle cx="6" cy="6" r="6" fill="#e9e9e9" transform="translate(58 75)"/><circle cx="6" cy="6" r="6" fill="#e9e9e9" transform="translate(87 75)"/><circle cx="6" cy="6" r="6" fill="#e9e9e9" transform="translate(116 75)"/><circle cx="6" cy="6" r="6" fill="#e9e9e9" transform="translate(145 75)"/><circle cx="6" cy="6" r="6" fill="#e9e9e9" transform="translate(174 75)"/><circle cx="6" cy="6" r="6" fill="#e9e9e9" transform="translate(203 75)"/><circle cx="6" cy="6" r="6" fill="#e9e9e9" transform="translate(0 100)"/><circle cx="6" cy="6" r="6" fill="#e9e9e9" transform="translate(29 100)"/><circle cx="6" cy="6" r="6" fill="#e9e9e9" transform="translate(58 100)"/><circle cx="6" cy="6" r="6" fill="#e9e9e9" transform="translate(87 100)"/><circle cx="6" cy="6" r="6" fill="#e9e9e9" transform="translate(116 100)"/><circle cx="6" cy="6" r="6" fill="#e9e9e9" transform="translate(145 100)"/><circle cx="6" cy="6" r="6" fill="#e9e9e9" transform="translate(174 100)"/><circle cx="6" cy="6" r="6" fill="#e9e9e9" transform="translate(203 100)"/></g><path fill="none" stroke="#253448" stroke-linecap="round" stroke-linejoin="round" stroke-miterlimit="10" stroke-width="1.3" d="M143 347v2a6 6 0 01-6 4h-2l1 2a6 6 0 013 6l-1 2 2-1a6 6 0 017 0l2 1-1-2a6 6 0 012-6l2-2h-2a6 6 0 01-6-4zM1098 267v2a6 6 0 01-6 4h-2l1 2a6 6 0 013 6l-1 2 2-1a6 6 0 017 0l2 1-1-2a6 6 0 012-6l2-2h-2a6 6 0 01-6-4zM1081 902v2a6 6 0 01-6 4h-2l1 2a6 6 0 013 6l-1 2 2-1a6 6 0 017 0l2 1-1-2a6 6 0 012-6l2-2h-2a6 6 0 01-6-4zM498 16l-1 2a6 6 0 01-5 5h-2l1 1a6 6 0 012 7v2l2-2a6 6 0 017 0l1 2v-2a6 6 0 012-7l2-1h-2a6 6 0 01-6-5zM224 821l-1 2a6 6 0 01-5 5h-2l1 1a6 6 0 012 7v2l2-2a6 6 0 017 0l1 2v-2a6 6 0 012-7l2-1h-2a6 6 0 01-6-5zM1360 124v2a6 6 0 01-6 4h-2l2 1a6 6 0 012 7l-1 2 2-1a6 6 0 017 0l2 1-1-2a6 6 0 012-7l2-1h-2a6 6 0 01-6-4zM587 871v2a6 6 0 01-6 4h-2l2 1a6 6 0 012 7l-1 2 2-1a6 6 0 017 0l2 1-1-2a6 6 0 012-7l2-1h-2a6 6 0 01-6-4z"/><g clip-path="url(#a)" transform="translate(1539 58)"><circle cx="6" cy="6" r="6" fill="#e9e9e9"/><circle cx="6" cy="6" r="6" fill="#e9e9e9" transform="translate(29)"/><circle cx="6" cy="6" r="6" fill="#e9e9e9" transform="translate(58)"/><circle cx="6" cy="6" r="6" fill="#e9e9e9" transform="translate(87)"/><circle cx="6" cy="6" r="6" fill="#e9e9e9" transform="translate(116)"/><circle cx="6" cy="6" r="6" fill="#e9e9e9" transform="translate(145)"/><circle cx="6" cy="6" r="6" fill="#e9e9e9" transform="translate(174)"/><circle cx="6" cy="6" r="6" fill="#e9e9e9" transform="translate(203)"/><circle cx="6" cy="6" r="6" fill="#e9e9e9" transform="translate(0 25)"/><circle cx="6" cy="6" r="6" fill="#e9e9e9" transform="translate(29 25)"/><circle cx="6" cy="6" r="6" fill="#e9e9e9" transform="translate(58 25)"/><circle cx="6" cy="6" r="6" fill="#e9e9e9" transform="translate(87 25)"/><circle cx="6" cy="6" r="6" fill="#e9e9e9" transform="translate(116 25)"/><circle cx="6" cy="6" r="6" fill="#e9e9e9" transform="translate(145 25)"/><circle cx="6" cy="6" r="6" fill="#e9e9e9" transform="translate(174 25)"/><circle cx="6" cy="6" r="6" fill="#e9e9e9" transform="translate(203 25)"/><circle cx="6" cy="6" r="6" fill="#e9e9e9" transform="translate(0 50)"/><circle cx="6" cy="6" r="6" fill="#e9e9e9" transform="translate(29 50)"/><circle cx="6" cy="6" r="6" fill="#e9e9e9" transform="translate(58 50)"/><circle cx="6" cy="6" r="6" fill="#e9e9e9" transform="translate(87 50)"/><circle cx="6" cy="6" r="6" fill="#e9e9e9" transform="translate(116 50)"/><circle cx="6" cy="6" r="6" fill="#e9e9e9" transform="translate(145 50)"/><circle cx="6" cy="6" r="6" fill="#e9e9e9" transform="translate(174 50)"/><circle cx="6" cy="6" r="6" fill="#e9e9e9" transform="translate(203 50)"/><circle cx="6" cy="6" r="6" fill="#e9e9e9" transform="translate(0 75)"/><circle cx="6" cy="6" r="6" fill="#e9e9e9" transform="translate(29 75)"/><circle cx="6" cy="6" r="6" fill="#e9e9e9" transform="translate(58 75)"/><circle cx="6" cy="6" r="6" fill="#e9e9e9" transform="translate(87 75)"/><circle cx="6" cy="6" r="6" fill="#e9e9e9" transform="translate(116 75)"/><circle cx="6" cy="6" r="6" fill="#e9e9e9" transform="translate(145 75)"/><circle cx="6" cy="6" r="6" fill="#e9e9e9" transform="translate(174 75)"/><circle cx="6" cy="6" r="6" fill="#e9e9e9" transform="translate(203 75)"/><circle cx="6" cy="6" r="6" fill="#e9e9e9" transform="translate(0 100)"/><circle cx="6" cy="6" r="6" fill="#e9e9e9" transform="translate(29 100)"/><circle cx="6" cy="6" r="6" fill="#e9e9e9" transform="translate(58 100)"/><circle cx="6" cy="6" r="6" fill="#e9e9e9" transform="translate(87 100)"/><circle cx="6" cy="6" r="6" fill="#e9e9e9" transform="translate(116 100)"/><circle cx="6" cy="6" r="6" fill="#e9e9e9" transform="translate(145 100)"/><circle cx="6" cy="6" r="6" fill="#e9e9e9" transform="translate(174 100)"/><circle cx="6" cy="6" r="6" fill="#e9e9e9" transform="translate(203 100)"/></g><g clip-path="url(#b)" transform="translate(0 36)"><circle cx="6" cy="6" r="6" fill="#e9e9e9"/><circle cx="6" cy="6" r="6" fill="#e9e9e9" transform="translate(29)"/><circle cx="6" cy="6" r="6" fill="#e9e9e9" transform="translate(58)"/><circle cx="6" cy="6" r="6" fill="#e9e9e9" transform="translate(87)"/><circle cx="6" cy="6" r="6" fill="#e9e9e9" transform="translate(116)"/><circle cx="6" cy="6" r="6" fill="#e9e9e9" transform="translate(0 25)"/><circle cx="6" cy="6" r="6" fill="#e9e9e9" transform="translate(29 25)"/><circle cx="6" cy="6" r="6" fill="#e9e9e9" transform="translate(58 25)"/><circle cx="6" cy="6" r="6" fill="#e9e9e9" transform="translate(87 25)"/><circle cx="6" cy="6" r="6" fill="#e9e9e9" transform="translate(116 25)"/><circle cx="6" cy="6" r="6" fill="#e9e9e9" transform="translate(0 50)"/><circle cx="6" cy="6" r="6" fill="#e9e9e9" transform="translate(29 50)"/><circle cx="6" cy="6" r="6" fill="#e9e9e9" transform="translate(58 50)"/><circle cx="6" cy="6" r="6" fill="#e9e9e9" transform="translate(87 50)"/><circle cx="6" cy="6" r="6" fill="#e9e9e9" transform="translate(116 50)"/><circle cx="6" cy="6" r="6" fill="#e9e9e9" transform="translate(0 75)"/><circle cx="6" cy="6" r="6" fill="#e9e9e9" transform="translate(29 75)"/><circle cx="6" cy="6" r="6" fill="#e9e9e9" transform="translate(58 75)"/><circle cx="6" cy="6" r="6" fill="#e9e9e9" transform="translate(87 75)"/><circle cx="6" cy="6" r="6" fill="#e9e9e9" transform="translate(116 75)"/><circle cx="6" cy="6" r="6" fill="#e9e9e9" transform="translate(0 100)"/><circle cx="6" cy="6" r="6" fill="#e9e9e9" transform="translate(29 100)"/><circle cx="6" cy="6" r="6" fill="#e9e9e9" transform="translate(58 100)"/><circle cx="6" cy="6" r="6" fill="#e9e9e9" transform="translate(87 100)"/><circle cx="6" cy="6" r="6" fill="#e9e9e9" transform="translate(116 100)"/><circle cx="6" cy="6" r="6" fill="#e9e9e9" transform="translate(0 125)"/><circle cx="6" cy="6" r="6" fill="#e9e9e9" transform="translate(29 125)"/><circle cx="6" cy="6" r="6" fill="#e9e9e9" transform="translate(58 125)"/><circle cx="6" cy="6" r="6" fill="#e9e9e9" transform="translate(87 125)"/><circle cx="6" cy="6" r="6" fill="#e9e9e9" transform="translate(116 125)"/><circle cx="6" cy="6" r="6" fill="#e9e9e9" transform="translate(0 150)"/><circle cx="6" cy="6" r="6" fill="#e9e9e9" transform="translate(29 150)"/><circle cx="6" cy="6" r="6" fill="#e9e9e9" transform="translate(58 150)"/><circle cx="6" cy="6" r="6" fill="#e9e9e9" transform="translate(87 150)"/><circle cx="6" cy="6" r="6" fill="#e9e9e9" transform="translate(116 150)"/></g><path fill="#fff" d="M921 97l33-26-28-35-33 26z"/><path fill="#fff" d="M926 36a21 21 0 00-29-3 21 21 0 00-4 29z"/><path fill="#c39bff" d="M897 33c-4 8-1 15 5 22l-4 4 23 29 29-22 4 5-33 26-28-35s-12-15 4-29"/><path fill="#fff" d="M971 95a2 2 0 000-3 21 21 0 00-28-1 21 21 0 00-5 27 2 2 0 003 1z"/><path fill="#9a57ff" d="M943 91c-4 8-1 15 5 22l-7 6a2 2 0 01-3-1c-2-4-7-16 5-27"/><path fill="#b98aff" d="M871 132l40-33-22-28-41 32z"/><path fill="#fff" d="M853 110l37-30-5-6-37 29z"/><path fill="none" stroke="#253448" stroke-linecap="round" stroke-linejoin="round" stroke-miterlimit="10" stroke-width="1.3" d="M908 95l-19-24-41 32M851 108l20 24 40-33M882 79l20 25M874 86l19 24M866 92l19 25M858 99l19 24M951 67l-25-31M896 65l25 32 33-26M922 39l-29 23"/><path fill="#60f" d="M893 27l4 5-1 1-4-5a3 3 0 01-3-1 3 3 0 010-3 3 3 0 014 0 3 3 0 010 3"/><path fill="none" stroke="#253448" stroke-linecap="round" stroke-linejoin="round" stroke-miterlimit="10" stroke-width="1.3" d="M906 28a21 21 0 00-16 27M926 36a21 21 0 00-14-8"/><path fill="#a66bff" d="M959 113l-4-5 2-2 4 5a3 3 0 11-2 2"/><path fill="none" stroke="#253448" stroke-linecap="round" stroke-linejoin="round" stroke-miterlimit="10" stroke-width="1.3" d="M942 118l29-23a2 2 0 000-3 21 21 0 00-7-5M957 86a21 21 0 00-14 5 21 21 0 00-6 25"/><path fill="#253448" d="M942 92l2-2-5-7-3 2z"/><path fill="none" stroke="#253448" stroke-linecap="round" stroke-linejoin="round" stroke-miterlimit="10" stroke-width="1.3" d="M942 92l2-2-5-7-3 2z"/><path fill="#253448" d="M907 79l-2-2-7 5 2 3z"/><path fill="none" stroke="#253448" stroke-linecap="round" stroke-linejoin="round" stroke-miterlimit="10" stroke-width="1.3" d="M907 79l-2-2-7 5 2 3z"/><path fill="#253448" d="M940 53l-2-2 7-6 2 2z"/><path fill="none" stroke="#253448" stroke-linecap="round" stroke-linejoin="round" stroke-miterlimit="10" stroke-width="1.3" d="M940 53l-2-2 7-6 2 2z"/><path fill="#c39bff" d="M999 29l-41 33-22-28 40-33z"/><path fill="#fff" d="M982 7l-37 30-6-7 37-29z"/><path fill="none" stroke="#253448" stroke-linecap="round" stroke-linejoin="round" stroke-miterlimit="10" stroke-width="1.3" d="M955 58l-19-24 40-33M980 5l19 24-41 33M945 29l20 24M954 23l19 24M962 16l19 24M970 10l19 24M917 70l11-9-9-11-10 8zM923 77l11-9-3-3-11 8z"/><g><path fill="none" stroke="#253448" stroke-linecap="round" stroke-linejoin="round" stroke-miterlimit="10" stroke-width="1.3006760000000002" d="M120 810c-5 11 2 25 2 25s14-4 19-16a33 33 0 003-7"/><path fill="#d18cff" d="M122 799l1-24a35 35 0 00-7 5c-1 10-10 22-10 22a30 30 0 002 8z"/><path fill="none" stroke="#253448" stroke-linecap="round" stroke-linejoin="round" stroke-miterlimit="10" stroke-width="1.3006760000000002" d="M120 800l-12 10s-8-21 12-33"/><path fill="#d18cff" d="M148 811l17-17a35 35 0 011 8c-6 7-9 22-9 22a30 30 0 01-7 4z"/><path fill="none" stroke="#253448" stroke-linecap="round" stroke-linejoin="round" stroke-miterlimit="10" stroke-width="1.3006760000000002" d="M149 813l1 15s20-8 16-31"/><path fill="#fff" d="M148 811c12-12 28-29 34-41 12-28-4-62-4-62s-36 11-48 39c-6 14-8 35-8 52z"/><path fill="#bc57ff" d="M155 732l6 3a5 5 0 012 6l-10 25c-8 16-21 31-31 27v6l26 12c13-12 27-27 34-41 12-28-4-62-4-62a87 87 0 00-23 24"/><path fill="none" stroke="#253448" stroke-linecap="round" stroke-linejoin="round" stroke-miterlimit="10" stroke-width="1.3006760000000002" d="M178 708s-19 6-34 20M169 790c5-7 10-13 13-20 9-21 2-45-1-56M130 747c-6 14-8 35-8 52l26 12 14-14M144 728l40 17M155 740a14 14 0 11-5 2"/><path fill="none" stroke="#253448" stroke-linecap="round" stroke-linejoin="round" stroke-miterlimit="10" stroke-width="1.3006760000000002" d="M160 763a10 10 0 01-6-1 10 10 0 01-5-13 10 10 0 0113-5 10 10 0 015 13 10 10 0 01-3 4M129 819h0a1 1 0 01-1-2l12-26a1 1 0 012 0 1 1 0 010 1l-11 26a1 1 0 01-2 1zM165 748l-12 5M163 752l-12 5M123 819a31 31 0 001 10M134 819l5-10M119 841l-8 18M132 826l-12 26M116 833l-6 14"/></g></svg>